<svg xmlns="http://www.w3.org/2000/svg" xmlns:xlink="http://www.w3.org/1999/xlink" width="1500" zoomAndPan="magnify" viewBox="0 0 1125 428.250001" height="571" preserveAspectRatio="xMidYMid meet" version="1.0"><defs><clipPath id="37f292356a"><path d="M 0.984375 0 L 1124.015625 0 L 1124.015625 427.5 L 0.984375 427.5 Z M 0.984375 0 " clip-rule="nonzero"/></clipPath><clipPath id="cb6c6dfc17"><path d="M 0.984375 0 L 271.886719 0 L 271.886719 390.535156 L 0.984375 390.535156 Z M 0.984375 0 " clip-rule="nonzero"/></clipPath><clipPath id="5106674ca7"><path d="M 271.875 19.554688 C 271.875 25.625 271.726562 31.691406 271.429688 37.753906 C 271.128906 43.820312 270.683594 49.871094 270.089844 55.914062 C 269.492188 61.957031 268.75 67.980469 267.859375 73.984375 C 266.96875 79.992188 265.929688 85.972656 264.746094 91.925781 C 263.5625 97.878906 262.234375 103.800781 260.757812 109.691406 C 259.28125 115.582031 257.664062 121.429688 255.902344 127.238281 C 254.140625 133.050781 252.234375 138.8125 250.191406 144.527344 C 248.144531 150.246094 245.960938 155.90625 243.636719 161.515625 C 241.3125 167.125 238.855469 172.675781 236.257812 178.164062 C 233.664062 183.652344 230.933594 189.074219 228.070312 194.425781 C 225.210938 199.78125 222.21875 205.0625 219.097656 210.269531 C 215.976562 215.476562 212.726562 220.605469 209.355469 225.652344 C 205.984375 230.699219 202.488281 235.664062 198.871094 240.539062 C 195.253906 245.414062 191.519531 250.199219 187.667969 254.894531 C 183.816406 259.585938 179.851562 264.183594 175.777344 268.679688 C 171.699219 273.179688 167.511719 277.574219 163.21875 281.867188 C 158.925781 286.160156 154.53125 290.347656 150.035156 294.421875 C 145.535156 298.5 140.9375 302.464844 136.246094 306.316406 C 131.554688 310.167969 126.769531 313.902344 121.890625 317.519531 C 117.015625 321.136719 112.054688 324.628906 107.003906 328.003906 C 101.957031 331.375 96.828125 334.621094 91.621094 337.746094 C 86.414062 340.867188 81.132812 343.855469 75.78125 346.71875 C 70.425781 349.582031 65.003906 352.308594 59.515625 354.90625 C 54.027344 357.5 48.480469 359.960938 42.871094 362.285156 C 37.261719 364.609375 31.597656 366.792969 25.882812 368.835938 C 20.164062 370.882812 14.402344 372.785156 8.59375 374.546875 C 2.78125 376.3125 -3.066406 377.929688 -8.957031 379.40625 C -14.84375 380.878906 -20.765625 382.210938 -26.722656 383.394531 C -32.675781 384.578125 -38.65625 385.617188 -44.660156 386.507812 C -50.667969 387.398438 -56.691406 388.140625 -62.734375 388.734375 C -68.773438 389.332031 -74.828125 389.777344 -80.890625 390.074219 C -86.957031 390.375 -93.023438 390.523438 -99.09375 390.523438 C -105.164062 390.523438 -111.234375 390.375 -117.296875 390.074219 C -123.359375 389.777344 -129.414062 389.332031 -135.457031 388.734375 C -141.496094 388.140625 -147.519531 387.398438 -153.527344 386.507812 C -159.53125 385.617188 -165.511719 384.578125 -171.46875 383.394531 C -177.421875 382.210938 -183.34375 380.878906 -189.234375 379.40625 C -195.121094 377.929688 -200.972656 376.3125 -206.78125 374.546875 C -212.589844 372.785156 -218.355469 370.882812 -224.070312 368.835938 C -229.785156 366.792969 -235.449219 364.609375 -241.058594 362.285156 C -246.667969 359.960938 -252.214844 357.5 -257.703125 354.90625 C -263.191406 352.308594 -268.613281 349.582031 -273.96875 346.71875 C -279.324219 343.855469 -284.601562 340.867188 -289.8125 337.746094 C -295.019531 334.621094 -300.144531 331.375 -305.195312 328.003906 C -310.242188 324.628906 -315.203125 321.136719 -320.082031 317.519531 C -324.957031 313.902344 -329.742188 310.167969 -334.433594 306.316406 C -339.128906 302.464844 -343.722656 298.5 -348.222656 294.421875 C -352.71875 290.347656 -357.117188 286.160156 -361.410156 281.867188 C -365.703125 277.574219 -369.886719 273.179688 -373.964844 268.679688 C -378.042969 264.183594 -382.007812 259.585938 -385.859375 254.894531 C -389.710938 250.199219 -393.441406 245.414062 -397.058594 240.539062 C -400.675781 235.664062 -404.171875 230.699219 -407.542969 225.652344 C -410.917969 220.605469 -414.164062 215.476562 -417.285156 210.269531 C -420.40625 205.0625 -423.398438 199.78125 -426.261719 194.425781 C -429.121094 189.074219 -431.851562 183.652344 -434.445312 178.164062 C -437.042969 172.675781 -439.503906 167.125 -441.824219 161.515625 C -444.148438 155.90625 -446.332031 150.246094 -448.378906 144.527344 C -450.421875 138.8125 -452.328125 133.050781 -454.089844 127.238281 C -455.851562 121.429688 -457.472656 115.582031 -458.945312 109.691406 C -460.421875 103.800781 -461.75 97.878906 -462.9375 91.925781 C -464.121094 85.972656 -465.15625 79.992188 -466.046875 73.984375 C -466.9375 67.980469 -467.683594 61.957031 -468.277344 55.914062 C -468.871094 49.871094 -469.320312 43.820312 -469.617188 37.753906 C -469.914062 31.691406 -470.0625 25.625 -470.0625 19.554688 C -470.0625 13.480469 -469.914062 7.414062 -469.617188 1.351562 C -469.320312 -4.714844 -468.871094 -10.765625 -468.277344 -16.808594 C -467.683594 -22.851562 -466.9375 -28.875 -466.046875 -34.878906 C -465.15625 -40.886719 -464.121094 -46.863281 -462.9375 -52.820312 C -461.75 -58.773438 -460.421875 -64.695312 -458.945312 -70.585938 C -457.472656 -76.472656 -455.851562 -82.324219 -454.089844 -88.132812 C -452.328125 -93.941406 -450.421875 -99.707031 -448.378906 -105.421875 C -446.332031 -111.140625 -444.148438 -116.800781 -441.824219 -122.410156 C -439.503906 -128.019531 -437.042969 -133.570312 -434.445312 -139.058594 C -431.851562 -144.546875 -429.121094 -149.964844 -426.261719 -155.320312 C -423.398438 -160.675781 -420.40625 -165.957031 -417.285156 -171.164062 C -414.164062 -176.371094 -410.917969 -181.5 -407.542969 -186.546875 C -404.171875 -191.59375 -400.675781 -196.554688 -397.058594 -201.433594 C -393.441406 -206.308594 -389.710938 -211.09375 -385.859375 -215.789062 C -382.007812 -220.480469 -378.042969 -225.078125 -373.964844 -229.574219 C -369.886719 -234.074219 -365.703125 -238.46875 -361.410156 -242.761719 C -357.117188 -247.054688 -352.71875 -251.238281 -348.222656 -255.316406 C -343.722656 -259.394531 -339.128906 -263.359375 -334.433594 -267.210938 C -329.742188 -271.0625 -324.957031 -274.796875 -320.082031 -278.414062 C -315.203125 -282.027344 -310.242188 -285.523438 -305.195312 -288.898438 C -300.144531 -292.269531 -295.019531 -295.515625 -289.8125 -298.636719 C -284.601562 -301.757812 -279.324219 -304.75 -273.96875 -307.613281 C -268.613281 -310.472656 -263.191406 -313.203125 -257.703125 -315.800781 C -252.214844 -318.394531 -246.667969 -320.855469 -241.058594 -323.179688 C -235.449219 -325.5 -229.785156 -327.683594 -224.070312 -329.730469 C -218.355469 -331.777344 -212.589844 -333.679688 -206.78125 -335.441406 C -200.972656 -337.203125 -195.121094 -338.824219 -189.234375 -340.296875 C -183.34375 -341.773438 -177.421875 -343.105469 -171.46875 -344.289062 C -165.511719 -345.472656 -159.53125 -346.511719 -153.527344 -347.402344 C -147.519531 -348.292969 -141.496094 -349.035156 -135.457031 -349.628906 C -129.414062 -350.226562 -123.359375 -350.671875 -117.296875 -350.96875 C -111.234375 -351.265625 -105.164062 -351.417969 -99.09375 -351.417969 C -93.023438 -351.417969 -86.957031 -351.265625 -80.890625 -350.96875 C -74.828125 -350.671875 -68.773438 -350.226562 -62.734375 -349.628906 C -56.691406 -349.035156 -50.667969 -348.292969 -44.660156 -347.402344 C -38.65625 -346.511719 -32.675781 -345.472656 -26.722656 -344.289062 C -20.765625 -343.105469 -14.84375 -341.773438 -8.957031 -340.296875 C -3.066406 -338.824219 2.78125 -337.203125 8.59375 -335.441406 C 14.402344 -333.679688 20.164062 -331.777344 25.882812 -329.730469 C 31.597656 -327.683594 37.261719 -325.5 42.871094 -323.179688 C 48.480469 -320.855469 54.027344 -318.394531 59.515625 -315.800781 C 65.003906 -313.203125 70.425781 -310.472656 75.78125 -307.613281 C 81.132812 -304.75 86.414062 -301.757812 91.621094 -298.636719 C 96.828125 -295.515625 101.957031 -292.269531 107.003906 -288.898438 C 112.054688 -285.523438 117.015625 -282.027344 121.890625 -278.414062 C 126.769531 -274.796875 131.554688 -271.0625 136.246094 -267.210938 C 140.9375 -263.359375 145.535156 -259.394531 150.035156 -255.316406 C 154.53125 -251.238281 158.925781 -247.054688 163.21875 -242.761719 C 167.511719 -238.46875 171.699219 -234.074219 175.777344 -229.574219 C 179.851562 -225.078125 183.816406 -220.480469 187.667969 -215.789062 C 191.519531 -211.09375 195.253906 -206.308594 198.871094 -201.433594 C 202.488281 -196.554688 205.984375 -191.59375 209.355469 -186.546875 C 212.726562 -181.5 215.976562 -176.371094 219.097656 -171.164062 C 222.21875 -165.957031 225.210938 -160.675781 228.070312 -155.320312 C 230.933594 -149.964844 233.664062 -144.546875 236.257812 -139.058594 C 238.855469 -133.570312 241.3125 -128.019531 243.636719 -122.410156 C 245.960938 -116.800781 248.144531 -111.140625 250.191406 -105.421875 C 252.234375 -99.707031 254.140625 -93.941406 255.902344 -88.132812 C 257.664062 -82.324219 259.28125 -76.472656 260.757812 -70.585938 C 262.234375 -64.695312 263.5625 -58.773438 264.746094 -52.820312 C 265.929688 -46.863281 266.96875 -40.886719 267.859375 -34.878906 C 268.75 -28.875 269.492188 -22.851562 270.089844 -16.808594 C 270.683594 -10.765625 271.128906 -4.714844 271.429688 1.351562 C 271.726562 7.414062 271.875 13.480469 271.875 19.554688 Z M 271.875 19.554688 " clip-rule="nonzero"/></clipPath><linearGradient x1="0.557382" gradientTransform="matrix(741.938913, 0, 0, 741.938913, -470.063729, -351.41625)" y1="0.551918" x2="1.004902" gradientUnits="userSpaceOnUse" y2="0.995049" id="3e2e7c72b8"><stop stop-opacity="1" stop-color="rgb(2.641296%, 12.438965%, 48.352051%)" offset="0"/><stop stop-opacity="1" stop-color="rgb(2.653503%, 12.42218%, 48.231506%)" offset="0.03125"/><stop stop-opacity="1" stop-color="rgb(2.679443%, 12.390137%, 47.988892%)" offset="0.0625"/><stop stop-opacity="1" stop-color="rgb(2.705383%, 12.359619%, 47.746277%)" offset="0.09375"/><stop stop-opacity="1" stop-color="rgb(2.731323%, 12.327576%, 47.505188%)" offset="0.125"/><stop stop-opacity="1" stop-color="rgb(2.757263%, 12.295532%, 47.262573%)" offset="0.15625"/><stop stop-opacity="1" stop-color="rgb(2.783203%, 12.263489%, 47.019958%)" offset="0.1875"/><stop stop-opacity="1" stop-color="rgb(2.809143%, 12.232971%, 46.77887%)" offset="0.21875"/><stop stop-opacity="1" stop-color="rgb(2.836609%, 12.200928%, 46.536255%)" offset="0.25"/><stop stop-opacity="1" stop-color="rgb(2.862549%, 12.168884%, 46.295166%)" offset="0.28125"/><stop stop-opacity="1" stop-color="rgb(2.888489%, 12.136841%, 46.052551%)" offset="0.3125"/><stop stop-opacity="1" stop-color="rgb(2.914429%, 12.106323%, 45.809937%)" offset="0.34375"/><stop stop-opacity="1" stop-color="rgb(2.940369%, 12.07428%, 45.568848%)" offset="0.375"/><stop stop-opacity="1" stop-color="rgb(2.966309%, 12.042236%, 45.326233%)" offset="0.40625"/><stop stop-opacity="1" stop-color="rgb(2.992249%, 12.011719%, 45.083618%)" offset="0.411949"/><stop stop-opacity="1" stop-color="rgb(3.005981%, 11.99646%, 44.963074%)" offset="0.4375"/><stop stop-opacity="1" stop-color="rgb(3.018188%, 11.979675%, 44.842529%)" offset="0.46875"/><stop stop-opacity="1" stop-color="rgb(3.045654%, 11.947632%, 44.599915%)" offset="0.5"/><stop stop-opacity="1" stop-color="rgb(3.071594%, 11.915588%, 44.358826%)" offset="0.53125"/><stop stop-opacity="1" stop-color="rgb(3.097534%, 11.885071%, 44.116211%)" offset="0.5625"/><stop stop-opacity="1" stop-color="rgb(3.123474%, 11.853027%, 43.873596%)" offset="0.588051"/><stop stop-opacity="1" stop-color="rgb(3.137207%, 11.837769%, 43.753052%)" offset="0.59375"/><stop stop-opacity="1" stop-color="rgb(3.149414%, 11.820984%, 43.632507%)" offset="0.625"/><stop stop-opacity="1" stop-color="rgb(3.175354%, 11.78894%, 43.389893%)" offset="0.65625"/><stop stop-opacity="1" stop-color="rgb(3.201294%, 11.758423%, 43.147278%)" offset="0.6875"/><stop stop-opacity="1" stop-color="rgb(3.227234%, 11.726379%, 42.906189%)" offset="0.71875"/><stop stop-opacity="1" stop-color="rgb(3.2547%, 11.694336%, 42.663574%)" offset="0.75"/><stop stop-opacity="1" stop-color="rgb(3.28064%, 11.662292%, 42.422485%)" offset="0.78125"/><stop stop-opacity="1" stop-color="rgb(3.30658%, 11.631775%, 42.179871%)" offset="0.8125"/><stop stop-opacity="1" stop-color="rgb(3.33252%, 11.599731%, 41.937256%)" offset="0.84375"/><stop stop-opacity="1" stop-color="rgb(3.358459%, 11.567688%, 41.696167%)" offset="0.875"/><stop stop-opacity="1" stop-color="rgb(3.384399%, 11.53717%, 41.453552%)" offset="0.90625"/><stop stop-opacity="1" stop-color="rgb(3.410339%, 11.505127%, 41.210938%)" offset="0.9375"/><stop stop-opacity="1" stop-color="rgb(3.436279%, 11.473083%, 40.969849%)" offset="0.96875"/><stop stop-opacity="1" stop-color="rgb(3.463745%, 11.44104%, 40.727234%)" offset="1"/></linearGradient><clipPath id="e38b71186c"><path d="M 716.589844 42.75 L 1124.015625 42.75 L 1124.015625 427.5 L 716.589844 427.5 Z M 716.589844 42.75 " clip-rule="nonzero"/></clipPath><clipPath id="5526cb26df"><path d="M 1458.527344 413.71875 C 1458.527344 419.789062 1458.378906 425.859375 1458.082031 431.921875 C 1457.78125 437.984375 1457.335938 444.039062 1456.742188 450.082031 C 1456.144531 456.121094 1455.402344 462.148438 1454.511719 468.152344 C 1453.621094 474.15625 1452.582031 480.136719 1451.398438 486.09375 C 1450.214844 492.046875 1448.886719 497.96875 1447.410156 503.859375 C 1445.933594 509.746094 1444.316406 515.597656 1442.554688 521.40625 C 1440.792969 527.214844 1438.886719 532.980469 1436.84375 538.695312 C 1434.796875 544.410156 1432.613281 550.074219 1430.289062 555.683594 C 1427.964844 561.292969 1425.507812 566.839844 1422.910156 572.328125 C 1420.316406 577.816406 1417.585938 583.238281 1414.722656 588.59375 C 1411.863281 593.949219 1408.871094 599.226562 1405.75 604.4375 C 1402.628906 609.644531 1399.378906 614.769531 1396.007812 619.820312 C 1392.636719 624.867188 1389.140625 629.828125 1385.523438 634.707031 C 1381.90625 639.582031 1378.171875 644.367188 1374.320312 649.058594 C 1370.46875 653.753906 1366.503906 658.347656 1362.429688 662.847656 C 1358.351562 667.347656 1354.164062 671.742188 1349.871094 676.035156 C 1345.578125 680.328125 1341.183594 684.511719 1336.6875 688.589844 C 1332.1875 692.667969 1327.589844 696.632812 1322.898438 700.484375 C 1318.207031 704.335938 1313.421875 708.070312 1308.542969 711.683594 C 1303.667969 715.300781 1298.707031 718.796875 1293.65625 722.167969 C 1288.609375 725.542969 1283.480469 728.789062 1278.273438 731.910156 C 1273.066406 735.03125 1267.785156 738.023438 1262.433594 740.886719 C 1257.078125 743.746094 1251.65625 746.476562 1246.167969 749.070312 C 1240.679688 751.667969 1235.132812 754.128906 1229.523438 756.449219 C 1223.914062 758.773438 1218.25 760.957031 1212.535156 763.003906 C 1206.816406 765.050781 1201.054688 766.953125 1195.246094 768.714844 C 1189.433594 770.476562 1183.585938 772.097656 1177.695312 773.570312 C 1171.808594 775.046875 1165.886719 776.375 1159.929688 777.5625 C 1153.976562 778.746094 1147.996094 779.78125 1141.992188 780.671875 C 1135.984375 781.566406 1129.960938 782.308594 1123.917969 782.902344 C 1117.878906 783.496094 1111.824219 783.945312 1105.761719 784.242188 C 1099.695312 784.539062 1093.628906 784.6875 1087.558594 784.6875 C 1081.488281 784.6875 1075.417969 784.539062 1069.355469 784.242188 C 1063.292969 783.945312 1057.238281 783.496094 1051.195312 782.902344 C 1045.15625 782.308594 1039.132812 781.566406 1033.125 780.675781 C 1027.121094 779.78125 1021.140625 778.746094 1015.1875 777.5625 C 1009.230469 776.375 1003.308594 775.046875 997.417969 773.570312 C 991.53125 772.097656 985.679688 770.476562 979.871094 768.714844 C 974.0625 766.953125 968.296875 765.050781 962.582031 763.003906 C 956.867188 760.957031 951.203125 758.773438 945.59375 756.449219 C 939.984375 754.128906 934.4375 751.667969 928.949219 749.070312 C 923.460938 746.476562 918.039062 743.746094 912.683594 740.886719 C 907.328125 738.023438 902.050781 735.03125 896.839844 731.910156 C 891.632812 728.789062 886.507812 725.542969 881.457031 722.167969 C 876.410156 718.796875 871.449219 715.300781 866.570312 711.683594 C 861.695312 708.070312 856.910156 704.335938 852.21875 700.484375 C 847.523438 696.632812 842.929688 692.667969 838.429688 688.589844 C 833.933594 684.511719 829.535156 680.328125 825.242188 676.035156 C 820.949219 671.742188 816.765625 667.347656 812.6875 662.847656 C 808.609375 658.347656 804.644531 653.753906 800.792969 649.058594 C 796.941406 644.367188 793.210938 639.582031 789.59375 634.707031 C 785.976562 629.828125 782.480469 624.867188 779.109375 619.820312 C 775.734375 614.769531 772.488281 609.644531 769.367188 604.4375 C 766.246094 599.226562 763.253906 593.949219 760.390625 588.59375 C 757.53125 583.238281 754.800781 577.816406 752.207031 572.328125 C 749.609375 566.839844 747.148438 561.292969 744.828125 555.683594 C 742.503906 550.074219 740.320312 544.410156 738.273438 538.695312 C 736.230469 532.980469 734.324219 527.214844 732.5625 521.40625 C 730.800781 515.597656 729.179688 509.746094 727.707031 503.859375 C 726.230469 497.96875 724.902344 492.046875 723.714844 486.09375 C 722.53125 480.136719 721.496094 474.15625 720.605469 468.152344 C 719.714844 462.148438 718.96875 456.121094 718.375 450.082031 C 717.78125 444.039062 717.332031 437.984375 717.035156 431.921875 C 716.738281 425.859375 716.589844 419.789062 716.589844 413.71875 C 716.589844 407.648438 716.738281 401.582031 717.035156 395.515625 C 717.332031 389.453125 717.78125 383.398438 718.375 377.359375 C 718.96875 371.316406 719.714844 365.292969 720.605469 359.285156 C 721.496094 353.28125 722.53125 347.300781 723.714844 341.347656 C 724.902344 335.390625 726.230469 329.46875 727.707031 323.582031 C 729.179688 317.691406 730.800781 311.84375 732.5625 306.03125 C 734.324219 300.222656 736.230469 294.460938 738.273438 288.742188 C 740.320312 283.027344 742.503906 277.363281 744.828125 271.753906 C 747.148438 266.148438 749.609375 260.597656 752.207031 255.109375 C 754.800781 249.621094 757.53125 244.199219 760.390625 238.847656 C 763.253906 233.492188 766.246094 228.210938 769.367188 223.003906 C 772.488281 217.796875 775.734375 212.667969 779.109375 207.621094 C 782.480469 202.570312 785.976562 197.609375 789.59375 192.734375 C 793.210938 187.855469 796.941406 183.070312 800.792969 178.378906 C 804.644531 173.6875 808.609375 169.089844 812.6875 164.589844 C 816.765625 160.09375 820.949219 155.699219 825.242188 151.40625 C 829.535156 147.113281 833.933594 142.925781 838.429688 138.847656 C 842.929688 134.773438 847.523438 130.808594 852.21875 126.957031 C 856.910156 123.105469 861.695312 119.371094 866.570312 115.753906 C 871.449219 112.136719 876.410156 108.644531 881.457031 105.269531 C 886.507812 101.898438 891.632812 98.648438 896.839844 95.527344 C 902.050781 92.40625 907.328125 89.414062 912.683594 86.554688 C 918.039062 83.691406 923.460938 80.964844 928.949219 78.367188 C 934.4375 75.769531 939.984375 73.3125 945.59375 70.988281 C 951.203125 68.664062 956.867188 66.480469 962.582031 64.433594 C 968.296875 62.390625 974.0625 60.488281 979.871094 58.722656 C 985.679688 56.960938 991.53125 55.34375 997.417969 53.867188 C 1003.308594 52.390625 1009.230469 51.0625 1015.183594 49.878906 C 1021.140625 48.695312 1027.121094 47.65625 1033.125 46.765625 C 1039.132812 45.875 1045.15625 45.132812 1051.195312 44.535156 C 1057.238281 43.941406 1063.292969 43.496094 1069.355469 43.195312 C 1075.417969 42.898438 1081.488281 42.75 1087.558594 42.75 C 1093.628906 42.75 1099.695312 42.898438 1105.761719 43.195312 C 1111.824219 43.496094 1117.878906 43.941406 1123.917969 44.535156 C 1129.960938 45.132812 1135.984375 45.875 1141.992188 46.765625 C 1147.996094 47.65625 1153.976562 48.695312 1159.929688 49.878906 C 1165.886719 51.0625 1171.808594 52.390625 1177.695312 53.867188 C 1183.585938 55.34375 1189.433594 56.960938 1195.246094 58.722656 C 1201.054688 60.488281 1206.816406 62.390625 1212.535156 64.433594 C 1218.25 66.480469 1223.914062 68.664062 1229.523438 70.988281 C 1235.132812 73.3125 1240.679688 75.769531 1246.167969 78.367188 C 1251.65625 80.964844 1257.078125 83.691406 1262.433594 86.554688 C 1267.785156 89.414062 1273.066406 92.40625 1278.273438 95.527344 C 1283.480469 98.648438 1288.609375 101.898438 1293.65625 105.269531 C 1298.707031 108.644531 1303.667969 112.136719 1308.542969 115.753906 C 1313.421875 119.371094 1318.207031 123.105469 1322.898438 126.957031 C 1327.589844 130.808594 1332.1875 134.773438 1336.6875 138.847656 C 1341.183594 142.925781 1345.578125 147.113281 1349.871094 151.40625 C 1354.164062 155.699219 1358.351562 160.09375 1362.429688 164.589844 C 1366.503906 169.089844 1370.46875 173.6875 1374.320312 178.378906 C 1378.171875 183.070312 1381.90625 187.855469 1385.523438 192.734375 C 1389.140625 197.609375 1392.636719 202.570312 1396.007812 207.621094 C 1399.378906 212.667969 1402.628906 217.796875 1405.75 223.003906 C 1408.871094 228.210938 1411.863281 233.492188 1414.722656 238.847656 C 1417.585938 244.199219 1420.316406 249.621094 1422.910156 255.109375 C 1425.507812 260.597656 1427.964844 266.148438 1430.289062 271.753906 C 1432.613281 277.363281 1434.796875 283.027344 1436.84375 288.742188 C 1438.886719 294.460938 1440.792969 300.222656 1442.554688 306.03125 C 1444.316406 311.84375 1445.933594 317.691406 1447.410156 323.582031 C 1448.886719 329.46875 1450.214844 335.390625 1451.398438 341.347656 C 1452.582031 347.300781 1453.621094 353.28125 1454.511719 359.285156 C 1455.402344 365.292969 1456.144531 371.316406 1456.742188 377.359375 C 1457.335938 383.398438 1457.78125 389.453125 1458.082031 395.515625 C 1458.378906 401.582031 1458.527344 407.648438 1458.527344 413.71875 Z M 1458.527344 413.71875 " clip-rule="nonzero"/></clipPath><linearGradient x1="-0.0000000186416" gradientTransform="matrix(741.938913, 0, 0, 741.938913, 716.588663, 42.750161)" y1="-0.0000000184588" x2="0.53655" gradientUnits="userSpaceOnUse" y2="0.531289" id="82b7d13ffe"><stop stop-opacity="1" stop-color="rgb(1.599121%, 13.699341%, 57.998657%)" offset="0"/><stop stop-opacity="1" stop-color="rgb(1.61438%, 13.679504%, 57.853699%)" offset="0.03125"/><stop stop-opacity="1" stop-color="rgb(1.646423%, 13.641357%, 57.563782%)" offset="0.0625"/><stop stop-opacity="1" stop-color="rgb(1.676941%, 13.60321%, 57.273865%)" offset="0.09375"/><stop stop-opacity="1" stop-color="rgb(1.708984%, 13.566589%, 56.983948%)" offset="0.125"/><stop stop-opacity="1" stop-color="rgb(1.739502%, 13.528442%, 56.692505%)" offset="0.15625"/><stop stop-opacity="1" stop-color="rgb(1.771545%, 13.490295%, 56.402588%)" offset="0.1875"/><stop stop-opacity="1" stop-color="rgb(1.802063%, 13.452148%, 56.112671%)" offset="0.21875"/><stop stop-opacity="1" stop-color="rgb(1.834106%, 13.414001%, 55.822754%)" offset="0.25"/><stop stop-opacity="1" stop-color="rgb(1.864624%, 13.375854%, 55.532837%)" offset="0.28125"/><stop stop-opacity="1" stop-color="rgb(1.896667%, 13.337708%, 55.24292%)" offset="0.3125"/><stop stop-opacity="1" stop-color="rgb(1.927185%, 13.301086%, 54.951477%)" offset="0.34375"/><stop stop-opacity="1" stop-color="rgb(1.959229%, 13.262939%, 54.66156%)" offset="0.375"/><stop stop-opacity="1" stop-color="rgb(1.989746%, 13.224792%, 54.371643%)" offset="0.40625"/><stop stop-opacity="1" stop-color="rgb(2.02179%, 13.186646%, 54.081726%)" offset="0.4375"/><stop stop-opacity="1" stop-color="rgb(2.053833%, 13.148499%, 53.791809%)" offset="0.46875"/><stop stop-opacity="1" stop-color="rgb(2.084351%, 13.110352%, 53.500366%)" offset="0.483226"/><stop stop-opacity="1" stop-color="rgb(2.101135%, 13.092041%, 53.355408%)" offset="0.5"/><stop stop-opacity="1" stop-color="rgb(2.116394%, 13.072205%, 53.210449%)" offset="0.516774"/><stop stop-opacity="1" stop-color="rgb(2.131653%, 13.053894%, 53.065491%)" offset="0.53125"/><stop stop-opacity="1" stop-color="rgb(2.146912%, 13.035583%, 52.920532%)" offset="0.5625"/><stop stop-opacity="1" stop-color="rgb(2.178955%, 12.997437%, 52.630615%)" offset="0.59375"/><stop stop-opacity="1" stop-color="rgb(2.209473%, 12.95929%, 52.340698%)" offset="0.625"/><stop stop-opacity="1" stop-color="rgb(2.241516%, 12.921143%, 52.050781%)" offset="0.65625"/><stop stop-opacity="1" stop-color="rgb(2.272034%, 12.882996%, 51.759338%)" offset="0.6875"/><stop stop-opacity="1" stop-color="rgb(2.304077%, 12.844849%, 51.469421%)" offset="0.71875"/><stop stop-opacity="1" stop-color="rgb(2.334595%, 12.806702%, 51.179504%)" offset="0.75"/><stop stop-opacity="1" stop-color="rgb(2.366638%, 12.770081%, 50.889587%)" offset="0.78125"/><stop stop-opacity="1" stop-color="rgb(2.397156%, 12.731934%, 50.59967%)" offset="0.8125"/><stop stop-opacity="1" stop-color="rgb(2.429199%, 12.693787%, 50.308228%)" offset="0.84375"/><stop stop-opacity="1" stop-color="rgb(2.459717%, 12.65564%, 50.018311%)" offset="0.875"/><stop stop-opacity="1" stop-color="rgb(2.49176%, 12.617493%, 49.728394%)" offset="0.90625"/><stop stop-opacity="1" stop-color="rgb(2.522278%, 12.579346%, 49.438477%)" offset="0.9375"/><stop stop-opacity="1" stop-color="rgb(2.554321%, 12.541199%, 49.14856%)" offset="0.96875"/><stop stop-opacity="1" stop-color="rgb(2.586365%, 12.504578%, 48.857117%)" offset="1"/></linearGradient></defs><g clip-path="url(#37f292356a)"><path fill="#ffffff" d="M 0.984375 0 L 1124.015625 0 L 1124.015625 427.5 L 0.984375 427.5 Z M 0.984375 0 " fill-opacity="1" fill-rule="nonzero"/><path fill="#042394" d="M 0.984375 0 L 1124.015625 0 L 1124.015625 427.5 L 0.984375 427.5 Z M 0.984375 0 " fill-opacity="1" fill-rule="nonzero"/></g><g clip-path="url(#cb6c6dfc17)"><g clip-path="url(#5106674ca7)"><path fill="url(#3e2e7c72b8)" d="M 0.984375 0 L 0.984375 390.523438 L 271.875 390.523438 L 271.875 0 Z M 0.984375 0 " fill-rule="nonzero"/></g></g><g clip-path="url(#e38b71186c)"><g clip-path="url(#5526cb26df)"><path fill="url(#82b7d13ffe)" d="M 716.589844 42.75 L 716.589844 427.5 L 1124.015625 427.5 L 1124.015625 42.75 Z M 716.589844 42.75 " fill-rule="nonzero"/></g></g></svg>